# xmcd
#
# Track frame offsets:
#	150
#	11888
#	15717
#	35314
#	56212
#	68450
#	86113
#	105143
#	124683
#	132349
#	152787
#	172277
#	179967
#
# Disc length: 2915 seconds
#
# Revision: 1
# Processed by: cddbd v1.5.2PL0 Copyright (c) Steve Scherf et al.
# Submitted via: audiograbber 1.83.01
#
DISCID=b20b610d
DTITLE=COR - Seit ich die Menschen kenne
DYEAR=2009
DGENRE=Punk Rock
TTITLE0=AntiPop
TTITLE1=D.I.Y.
TTITLE2=Echo
TTITLE3=Das Tier
TTITLE4=Trashrock Terror
TTITLE5=Ein ganz normaler Tag
TTITLE6=Geld
TTITLE7=Engel
TTITLE8=Sünde
TTITLE9=Gott
TTITLE10=Freiheit
TTITLE11=In Beton
TTITLE12=Geräusch
EXTD=
EXTT0=
EXTT1=
EXTT2=
EXTT3=
EXTT4=
EXTT5=
EXTT6=
EXTT7=
EXTT8=
EXTT9=
EXTT10=
EXTT11=
EXTT12=
PLAYORDER=
